<svg width="70" height="256" viewBox="0 0 70 256" fill="none" xmlns="http://www.w3.org/2000/svg">
<path d="M41.74 150.74C41.74 151.847 41.5933 152.92 41.3 153.96C40.9933 154.987 40.6 155.813 40.12 156.44L37.68 155.34C38.12 154.74 38.4733 154.027 38.74 153.2C39.0067 152.373 39.14 151.547 39.14 150.72C39.14 149.8 39.0067 149.12 38.74 148.68C38.46 148.24 38.0933 148.02 37.64 148.02C37.3067 148.02 37.0333 148.153 36.82 148.42C36.5933 148.673 36.4133 149.007 36.28 149.42C36.1467 149.82 36 150.367 35.84 151.06C35.5867 152.127 35.3333 153 35.08 153.68C34.8267 154.36 34.42 154.947 33.86 155.44C33.3 155.92 32.5533 156.16 31.62 156.16C30.8067 156.16 30.0733 155.94 29.42 155.5C28.7533 155.06 28.2267 154.4 27.84 153.52C27.4533 152.627 27.26 151.54 27.26 150.26C27.26 149.367 27.3667 148.493 27.58 147.64C27.7933 146.787 28.1 146.04 28.5 145.4L30.96 146.4C30.2267 147.693 29.86 148.987 29.86 150.28C29.86 151.187 30.0067 151.86 30.3 152.3C30.5933 152.727 30.98 152.94 31.46 152.94C31.94 152.94 32.3 152.693 32.54 152.2C32.7667 151.693 32.9933 150.927 33.22 149.9C33.4733 148.833 33.7267 147.96 33.98 147.28C34.2333 146.6 34.6333 146.02 35.18 145.54C35.7267 145.047 36.4667 144.8 37.4 144.8C38.2 144.8 38.9333 145.027 39.6 145.48C40.2533 145.92 40.7733 146.587 41.16 147.48C41.5467 148.373 41.74 149.46 41.74 150.74ZM41.74 136.286C41.74 137.713 41.4333 139.006 40.82 140.166C40.1933 141.313 39.3333 142.219 38.24 142.886C37.1333 143.539 35.8867 143.866 34.5 143.866C33.1133 143.866 31.8733 143.539 30.78 142.886C29.6733 142.219 28.8133 141.313 28.2 140.166C27.5733 139.006 27.26 137.706 27.26 136.266C27.26 135.053 27.4733 133.959 27.9 132.986C28.3267 131.999 28.94 131.173 29.74 130.506L31.66 132.586C30.5667 133.533 30.02 134.706 30.02 136.106C30.02 136.973 30.2133 137.746 30.6 138.426C30.9733 139.106 31.5 139.639 32.18 140.026C32.86 140.399 33.6333 140.586 34.5 140.586C35.3667 140.586 36.14 140.399 36.82 140.026C37.5 139.639 38.0333 139.106 38.42 138.426C38.7933 137.746 38.98 136.973 38.98 136.106C38.98 134.706 38.4267 133.533 37.32 132.586L39.24 130.506C40.0533 131.173 40.6733 131.999 41.1 132.986C41.5267 133.973 41.74 135.073 41.74 136.286ZM41.5 119.798L37.6 122.498L37.6 122.658L37.6 125.478L41.5 125.478L41.5 128.718L27.5 128.718L27.5 122.658C27.5 121.418 27.7067 120.345 28.12 119.438C28.5333 118.518 29.12 117.811 29.88 117.318C30.64 116.825 31.54 116.578 32.58 116.578C33.62 116.578 34.52 116.831 35.28 117.338C36.0267 117.831 36.6 118.538 37 119.458L41.5 116.318L41.5 119.798ZM32.58 119.858C31.7933 119.858 31.1933 120.111 30.78 120.618C30.3533 121.125 30.14 121.865 30.14 122.838L30.14 125.478L35.02 125.478L35.02 122.838C35.02 121.865 34.8067 121.125 34.38 120.618C33.9533 120.111 33.3533 119.858 32.58 119.858ZM41.74 107.631C41.74 109.084 41.4267 110.398 40.8 111.571C40.1733 112.731 39.3133 113.644 38.22 114.311C37.1133 114.964 35.8733 115.291 34.5 115.291C33.1267 115.291 31.8933 114.964 30.8 114.311C29.6933 113.644 28.8267 112.731 28.2 111.571C27.5733 110.398 27.26 109.084 27.26 107.631C27.26 106.178 27.5733 104.871 28.2 103.711C28.8267 102.551 29.6933 101.638 30.8 100.971C31.8933 100.304 33.1267 99.9711 34.5 99.9711C35.8733 99.9711 37.1133 100.304 38.22 100.971C39.3133 101.638 40.1733 102.551 40.8 103.711C41.4267 104.871 41.74 106.178 41.74 107.631ZM38.98 107.631C38.98 106.804 38.7933 106.058 38.42 105.391C38.0333 104.724 37.5 104.204 36.82 103.831C36.14 103.444 35.3667 103.251 34.5 103.251C33.6333 103.251 32.86 103.444 32.18 103.831C31.5 104.204 30.9733 104.724 30.6 105.391C30.2133 106.058 30.02 106.804 30.02 107.631C30.02 108.458 30.2133 109.204 30.6 109.871C30.9733 110.538 31.5 111.064 32.18 111.451C32.86 111.824 33.6333 112.011 34.5 112.011C35.3667 112.011 36.14 111.824 36.82 111.451C37.5 111.064 38.0333 110.538 38.42 109.871C38.7933 109.204 38.98 108.458 38.98 107.631ZM27.5 97.9361L27.5 94.6961L38.86 94.6961L38.86 87.6761L41.5 87.6761L41.5 97.9361L27.5 97.9361ZM27.5 86.2658L27.5 83.0258L38.86 83.0258L38.86 76.0058L41.5 76.0058L41.5 86.2658L27.5 86.2658ZM27.5 69.3314L27.5 62.9714C27.5 61.4514 27.7933 60.1114 28.38 58.9514C28.9533 57.7781 29.7667 56.8714 30.82 56.2314C31.8733 55.5781 33.1 55.2514 34.5 55.2514C35.9 55.2514 37.1267 55.5781 38.18 56.2314C39.2333 56.8714 40.0533 57.7781 40.64 58.9514C41.2133 60.1114 41.5 61.4514 41.5 62.9714L41.5 69.3314L27.5 69.3314ZM38.84 63.1314C38.84 61.7314 38.4533 60.6181 37.68 59.7914C36.8933 58.9514 35.8333 58.5314 34.5 58.5314C33.1667 58.5314 32.1133 58.9514 31.34 59.7914C30.5533 60.6181 30.16 61.7314 30.16 63.1314L30.16 66.0914L38.84 66.0914L38.84 63.1314ZM41.74 46.428C41.74 47.8813 41.4267 49.1946 40.8 50.368C40.1733 51.528 39.3133 52.4413 38.22 53.108C37.1133 53.7613 35.8733 54.088 34.5 54.088C33.1267 54.088 31.8933 53.7613 30.8 53.108C29.6933 52.4413 28.8267 51.528 28.2 50.368C27.5733 49.1946 27.26 47.8813 27.26 46.428C27.26 44.9746 27.5733 43.668 28.2 42.508C28.8267 41.348 29.6933 40.4346 30.8 39.768C31.8933 39.1013 33.1267 38.768 34.5 38.768C35.8733 38.768 37.1133 39.1013 38.22 39.768C39.3133 40.4346 40.1733 41.348 40.8 42.508C41.4267 43.668 41.74 44.9746 41.74 46.428ZM38.98 46.428C38.98 45.6013 38.7933 44.8546 38.42 44.188C38.0333 43.5213 37.5 43.0013 36.82 42.628C36.14 42.2413 35.3667 42.048 34.5 42.048C33.6333 42.048 32.86 42.2413 32.18 42.628C31.5 43.0013 30.9733 43.5213 30.6 44.188C30.2133 44.8546 30.02 45.6013 30.02 46.428C30.02 47.2546 30.2133 48.0013 30.6 48.668C30.9733 49.3346 31.5 49.8613 32.18 50.248C32.86 50.6213 33.6333 50.808 34.5 50.808C35.3667 50.808 36.14 50.6213 36.82 50.248C37.5 49.8613 38.0333 49.3346 38.42 48.668C38.7933 48.0013 38.98 47.2546 38.98 46.428ZM27.5 16.0417L41.5 20.6217L41.5 24.1017L32.02 27.1817L41.5 30.3617L41.5 33.8217L27.5 38.4217L27.5 35.0617L37.34 31.9017L27.5 28.6017L27.5 25.6017L37.42 22.4017L27.5 19.1417L27.5 16.0417ZM27.5 1.79297L41.5 1.79297L41.5 4.45297L33 11.433L41.5 11.433L41.5 14.633L27.5 14.633L27.5 11.953L36 4.99297L27.5 4.99297L27.5 1.79297Z" fill="#191124"/>
<rect y="186" width="70" height="70" fill="#191124"/>
<path d="M52.5 215.167L48.3875 211.054L35 224.412L21.6125 211.054L17.5 215.167L35 232.667L52.5 215.167Z" fill="#FF5F16"/>
</svg>
